<svg xmlns="http://www.w3.org/2000/svg" xmlns:xlink="http://www.w3.org/1999/xlink" width="1000" zoomAndPan="magnify" viewBox="0 0 750 749.999995" height="1000" preserveAspectRatio="xMidYMid meet" version="1.0"><defs><clipPath id="6786da299b"><path d="M 45.257812 501 L 704.507812 501 L 704.507812 743.53125 L 45.257812 743.53125 Z M 45.257812 501 " clip-rule="nonzero"/></clipPath><clipPath id="725b6e7845"><path d="M 364.496094 195.640625 L 385.503906 195.640625 L 385.503906 216.644531 L 364.496094 216.644531 Z M 364.496094 195.640625 " clip-rule="nonzero"/></clipPath><clipPath id="c20b6c7a58"><path d="M 375 195.640625 C 369.199219 195.640625 364.496094 200.339844 364.496094 206.140625 C 364.496094 211.945312 369.199219 216.644531 375 216.644531 C 380.800781 216.644531 385.503906 211.945312 385.503906 206.140625 C 385.503906 200.339844 380.800781 195.640625 375 195.640625 " clip-rule="nonzero"/></clipPath><clipPath id="1891cceb40"><path d="M 440.695312 195.640625 L 461.703125 195.640625 L 461.703125 216.644531 L 440.695312 216.644531 Z M 440.695312 195.640625 " clip-rule="nonzero"/></clipPath><clipPath id="2fef404a0b"><path d="M 451.199219 195.640625 C 445.398438 195.640625 440.695312 200.339844 440.695312 206.140625 C 440.695312 211.945312 445.398438 216.644531 451.199219 216.644531 C 457 216.644531 461.703125 211.945312 461.703125 206.140625 C 461.703125 200.339844 457 195.640625 451.199219 195.640625 " clip-rule="nonzero"/></clipPath><clipPath id="2d93e847ee"><path d="M 287.238281 195.640625 L 308.246094 195.640625 L 308.246094 216.644531 L 287.238281 216.644531 Z M 287.238281 195.640625 " clip-rule="nonzero"/></clipPath><clipPath id="684af5fae2"><path d="M 297.742188 195.640625 C 291.941406 195.640625 287.238281 200.339844 287.238281 206.140625 C 287.238281 211.945312 291.941406 216.644531 297.742188 216.644531 C 303.542969 216.644531 308.246094 211.945312 308.246094 206.140625 C 308.246094 200.339844 303.542969 195.640625 297.742188 195.640625 " clip-rule="nonzero"/></clipPath><clipPath id="416ded27bb"><path d="M 372 198 L 383 198 L 383 214 L 372 214 Z M 372 198 " clip-rule="nonzero"/></clipPath><clipPath id="dd494b6c03"><path d="M 367.871094 201.566406 L 378.875 196.769531 L 384.566406 209.832031 L 373.566406 214.628906 Z M 367.871094 201.566406 " clip-rule="nonzero"/></clipPath><clipPath id="36f44d697a"><path d="M 367.871094 201.566406 L 378.875 196.769531 L 384.566406 209.832031 L 373.566406 214.628906 Z M 367.871094 201.566406 " clip-rule="nonzero"/></clipPath><clipPath id="616ae14f70"><path d="M 449 198 L 460 198 L 460 214 L 449 214 Z M 449 198 " clip-rule="nonzero"/></clipPath><clipPath id="85aa76cf85"><path d="M 444.753906 201.566406 L 455.753906 196.769531 L 461.449219 209.832031 L 450.449219 214.628906 Z M 444.753906 201.566406 " clip-rule="nonzero"/></clipPath><clipPath id="0037d46586"><path d="M 444.753906 201.566406 L 455.753906 196.769531 L 461.449219 209.832031 L 450.449219 214.628906 Z M 444.753906 201.566406 " clip-rule="nonzero"/></clipPath><clipPath id="c9a9b839bc"><path d="M 296 198 L 306 198 L 306 214 L 296 214 Z M 296 198 " clip-rule="nonzero"/></clipPath><clipPath id="98a5572832"><path d="M 291.335938 201.566406 L 302.335938 196.769531 L 308.03125 209.832031 L 297.03125 214.628906 Z M 291.335938 201.566406 " clip-rule="nonzero"/></clipPath><clipPath id="3e4c776363"><path d="M 291.335938 201.566406 L 302.335938 196.769531 L 308.03125 209.832031 L 297.03125 214.628906 Z M 291.335938 201.566406 " clip-rule="nonzero"/></clipPath></defs><path fill="#8e1537" d="M 501.738281 107.292969 C 501.160156 107.292969 500.585938 107.210938 500.070312 107.125 C 500.539062 107.03125 500.992188 106.894531 501.4375 106.722656 C 501.882812 106.546875 502.308594 106.335938 502.71875 106.089844 C 503.125 105.84375 503.511719 105.5625 503.871094 105.25 C 504.230469 104.9375 504.5625 104.59375 504.863281 104.222656 C 505.164062 103.855469 505.433594 103.460938 505.667969 103.042969 C 505.902344 102.628906 506.097656 102.195312 506.257812 101.746094 C 506.417969 101.296875 506.539062 100.835938 506.617188 100.363281 C 506.699219 99.894531 506.738281 99.417969 506.738281 98.941406 C 506.742188 98.464844 506.703125 97.988281 506.625 97.515625 C 506.546875 97.046875 506.429688 96.585938 506.269531 96.132812 C 506.113281 95.683594 505.917969 95.246094 505.683594 94.832031 C 505.449219 94.414062 505.179688 94.019531 504.878906 93.648438 C 504.578125 93.277344 504.246094 92.933594 503.882812 92.621094 C 503.523438 92.308594 503.136719 92.03125 502.726562 91.78125 C 502.316406 91.535156 501.890625 91.328125 501.441406 91.15625 C 500.996094 90.984375 500.539062 90.851562 500.070312 90.757812 C 500.640625 90.644531 501.21875 90.585938 501.800781 90.59375 C 502.386719 90.597656 502.960938 90.664062 503.53125 90.789062 C 504.101562 90.914062 504.652344 91.097656 505.183594 91.339844 C 505.714844 91.582031 506.214844 91.875 506.683594 92.21875 C 507.152344 92.566406 507.582031 92.957031 507.96875 93.394531 C 508.355469 93.828125 508.695312 94.300781 508.984375 94.808594 C 509.273438 95.3125 509.507812 95.84375 509.683594 96.402344 C 509.863281 96.957031 509.980469 97.523438 510.039062 98.105469 C 510.097656 98.683594 510.09375 99.265625 510.03125 99.84375 C 509.96875 100.425781 509.847656 100.992188 509.664062 101.546875 C 509.480469 102.101562 509.246094 102.628906 508.953125 103.132812 C 508.660156 103.640625 508.316406 104.109375 507.925781 104.539062 C 507.535156 104.972656 507.101562 105.359375 506.628906 105.703125 C 506.160156 106.046875 505.65625 106.335938 505.121094 106.570312 C 504.589844 106.808594 504.039062 106.988281 503.46875 107.109375 C 502.898438 107.230469 502.320312 107.292969 501.738281 107.292969 M 501.738281 86.976562 C 495.117188 86.976562 489.808594 92.351562 489.808594 98.941406 C 489.808594 99.726562 489.886719 100.503906 490.039062 101.269531 C 490.191406 102.039062 490.417969 102.785156 490.71875 103.511719 C 491.019531 104.234375 491.386719 104.921875 491.824219 105.574219 C 492.257812 106.226562 492.753906 106.828125 493.308594 107.382812 C 493.859375 107.9375 494.464844 108.433594 495.117188 108.867188 C 495.769531 109.304688 496.457031 109.671875 497.179688 109.972656 C 497.90625 110.269531 498.652344 110.496094 499.417969 110.652344 C 500.1875 110.804688 500.964844 110.878906 501.75 110.878906 C 502.53125 110.878906 503.308594 110.804688 504.078125 110.652344 C 504.847656 110.496094 505.59375 110.269531 506.316406 109.972656 C 507.042969 109.671875 507.730469 109.304688 508.382812 108.867188 C 509.035156 108.433594 509.636719 107.9375 510.191406 107.382812 C 510.746094 106.828125 511.238281 106.226562 511.675781 105.574219 C 512.109375 104.921875 512.480469 104.234375 512.777344 103.511719 C 513.078125 102.785156 513.304688 102.039062 513.457031 101.269531 C 513.609375 100.503906 513.6875 99.726562 513.6875 98.941406 C 513.6875 92.351562 508.320312 86.976562 501.738281 86.976562 M 442.90625 81.242188 C 442.304688 81.242188 441.757812 81.160156 441.238281 81.101562 C 441.824219 81 442.398438 80.851562 442.957031 80.648438 C 443.515625 80.449219 444.054688 80.199219 444.570312 79.90625 C 445.085938 79.609375 445.570312 79.273438 446.027344 78.890625 C 446.484375 78.511719 446.902344 78.09375 447.285156 77.640625 C 447.667969 77.183594 448.007812 76.703125 448.308594 76.1875 C 448.605469 75.671875 448.855469 75.136719 449.058594 74.578125 C 449.261719 74.023438 449.417969 73.449219 449.519531 72.863281 C 449.625 72.28125 449.675781 71.691406 449.675781 71.097656 C 449.675781 70.503906 449.625 69.914062 449.519531 69.328125 C 449.417969 68.742188 449.261719 68.171875 449.058594 67.613281 C 448.855469 67.054688 448.605469 66.519531 448.308594 66.003906 C 448.007812 65.492188 447.667969 65.007812 447.285156 64.554688 C 446.902344 64.097656 446.484375 63.683594 446.027344 63.300781 C 445.570312 62.921875 445.085938 62.582031 444.570312 62.289062 C 444.054688 61.992188 443.515625 61.746094 442.957031 61.542969 C 442.398438 61.34375 441.824219 61.191406 441.238281 61.09375 C 441.757812 61.007812 442.304688 60.910156 442.90625 60.910156 C 448.5 60.910156 453.023438 65.492188 453.023438 71.09375 C 453.023438 76.699219 448.5 81.242188 442.90625 81.242188 M 442.90625 56.59375 C 434.839844 56.59375 428.40625 63.109375 428.40625 71.09375 C 428.40625 72.042969 428.496094 72.984375 428.683594 73.917969 C 428.871094 74.851562 429.144531 75.757812 429.507812 76.636719 C 429.871094 77.515625 430.320312 78.351562 430.847656 79.140625 C 431.375 79.933594 431.976562 80.664062 432.648438 81.335938 C 433.320312 82.007812 434.054688 82.609375 434.84375 83.136719 C 435.636719 83.667969 436.46875 84.113281 437.347656 84.476562 C 438.226562 84.839844 439.132812 85.117188 440.066406 85.300781 C 441 85.488281 441.941406 85.578125 442.894531 85.578125 C 443.84375 85.578125 444.789062 85.488281 445.71875 85.300781 C 446.652344 85.117188 447.558594 84.839844 448.4375 84.476562 C 449.316406 84.113281 450.152344 83.667969 450.945312 83.136719 C 451.734375 82.609375 452.464844 82.007812 453.140625 81.335938 C 453.8125 80.664062 454.414062 79.933594 454.941406 79.140625 C 455.46875 78.351562 455.914062 77.515625 456.28125 76.636719 C 456.644531 75.757812 456.917969 74.851562 457.105469 73.917969 C 457.289062 72.984375 457.382812 72.042969 457.382812 71.09375 C 457.382812 70.140625 457.289062 69.199219 457.105469 68.265625 C 456.917969 67.332031 456.644531 66.429688 456.28125 65.550781 C 455.917969 64.671875 455.472656 63.835938 454.945312 63.042969 C 454.417969 62.253906 453.816406 61.519531 453.144531 60.847656 C 452.472656 60.175781 451.742188 59.574219 450.949219 59.042969 C 450.160156 58.515625 449.328125 58.070312 448.449219 57.703125 C 447.570312 57.339844 446.664062 57.0625 445.730469 56.875 C 444.800781 56.6875 443.859375 56.59375 442.90625 56.59375 M 375.035156 73.390625 C 374.449219 73.390625 373.902344 73.285156 373.324219 73.210938 C 374.03125 73.113281 374.722656 72.957031 375.402344 72.734375 C 376.078125 72.515625 376.730469 72.238281 377.359375 71.898438 C 377.984375 71.5625 378.578125 71.171875 379.132812 70.726562 C 379.691406 70.28125 380.203125 69.792969 380.671875 69.253906 C 381.140625 68.71875 381.558594 68.144531 381.921875 67.53125 C 382.289062 66.921875 382.597656 66.28125 382.847656 65.613281 C 383.097656 64.949219 383.285156 64.261719 383.410156 63.5625 C 383.539062 62.863281 383.601562 62.15625 383.601562 61.441406 C 383.601562 55.441406 379.144531 50.46875 373.324219 49.632812 C 373.910156 49.550781 374.457031 49.476562 375.035156 49.476562 C 381.625 49.476562 386.960938 54.816406 386.960938 61.441406 C 386.960938 68.042969 381.625 73.390625 375.035156 73.390625 M 375.035156 44.335938 C 374.476562 44.335938 373.917969 44.363281 373.359375 44.417969 C 372.804688 44.472656 372.253906 44.554688 371.703125 44.664062 C 371.15625 44.769531 370.613281 44.90625 370.078125 45.070312 C 369.542969 45.230469 369.019531 45.417969 368.503906 45.632812 C 367.984375 45.847656 367.480469 46.085938 366.988281 46.347656 C 366.496094 46.613281 366.015625 46.898438 365.550781 47.210938 C 365.085938 47.519531 364.636719 47.855469 364.207031 48.207031 C 363.773438 48.5625 363.359375 48.9375 362.964844 49.332031 C 362.570312 49.726562 362.195312 50.140625 361.839844 50.574219 C 361.484375 51.007812 361.152344 51.453125 360.84375 51.917969 C 360.53125 52.382812 360.246094 52.863281 359.980469 53.355469 C 359.71875 53.847656 359.480469 54.351562 359.265625 54.871094 C 359.050781 55.386719 358.863281 55.910156 358.699219 56.445312 C 358.539062 56.980469 358.402344 57.523438 358.292969 58.070312 C 358.183594 58.621094 358.101562 59.171875 358.046875 59.726562 C 357.992188 60.285156 357.964844 60.84375 357.964844 61.402344 C 357.964844 61.960938 357.992188 62.515625 358.046875 63.074219 C 358.101562 63.628906 358.183594 64.183594 358.292969 64.730469 C 358.402344 65.277344 358.539062 65.820312 358.699219 66.355469 C 358.863281 66.890625 359.050781 67.414062 359.265625 67.933594 C 359.480469 68.449219 359.71875 68.953125 359.980469 69.445312 C 360.246094 69.9375 360.53125 70.417969 360.84375 70.882812 C 361.152344 71.347656 361.484375 71.796875 361.839844 72.226562 C 362.195312 72.660156 362.570312 73.074219 362.964844 73.46875 C 363.359375 73.863281 363.773438 74.238281 364.207031 74.59375 C 364.636719 74.949219 365.085938 75.28125 365.550781 75.589844 C 366.015625 75.902344 366.496094 76.1875 366.988281 76.453125 C 367.480469 76.714844 367.984375 76.953125 368.503906 77.167969 C 369.019531 77.382812 369.542969 77.570312 370.078125 77.734375 C 370.613281 77.894531 371.15625 78.03125 371.703125 78.140625 C 372.253906 78.25 372.804688 78.332031 373.359375 78.386719 C 373.917969 78.441406 374.476562 78.46875 375.035156 78.46875 C 375.589844 78.464844 376.148438 78.4375 376.703125 78.382812 C 377.257812 78.328125 377.804688 78.246094 378.351562 78.136719 C 378.898438 78.023438 379.4375 77.890625 379.972656 77.726562 C 380.503906 77.5625 381.027344 77.375 381.542969 77.164062 C 382.058594 76.949219 382.5625 76.710938 383.050781 76.445312 C 383.542969 76.183594 384.019531 75.898438 384.484375 75.585938 C 384.945312 75.277344 385.394531 74.945312 385.824219 74.59375 C 386.253906 74.238281 386.667969 73.863281 387.0625 73.472656 C 387.453125 73.078125 387.828125 72.664062 388.183594 72.234375 C 388.535156 71.804688 388.867188 71.355469 389.175781 70.894531 C 389.488281 70.429688 389.773438 69.953125 390.035156 69.460938 C 390.296875 68.96875 390.535156 68.464844 390.75 67.953125 C 390.964844 67.4375 391.152344 66.914062 391.3125 66.378906 C 391.476562 65.847656 391.613281 65.308594 391.722656 64.761719 C 391.832031 64.214844 391.914062 63.664062 391.96875 63.109375 C 392.023438 62.554688 392.050781 62 392.050781 61.441406 C 392.054688 60.882812 392.027344 60.328125 391.972656 59.769531 C 391.917969 59.214844 391.835938 58.664062 391.730469 58.113281 C 391.621094 57.566406 391.488281 57.023438 391.324219 56.488281 C 391.164062 55.953125 390.976562 55.429688 390.765625 54.914062 C 390.550781 54.394531 390.316406 53.890625 390.050781 53.398438 C 389.789062 52.90625 389.503906 52.425781 389.195312 51.960938 C 388.886719 51.496094 388.554688 51.046875 388.203125 50.613281 C 387.847656 50.179688 387.472656 49.765625 387.082031 49.371094 C 386.6875 48.972656 386.273438 48.597656 385.84375 48.242188 C 385.414062 47.886719 384.964844 47.554688 384.5 47.242188 C 384.039062 46.929688 383.558594 46.640625 383.070312 46.375 C 382.578125 46.113281 382.074219 45.871094 381.558594 45.65625 C 381.042969 45.441406 380.515625 45.25 379.984375 45.085938 C 379.449219 44.921875 378.910156 44.785156 378.359375 44.675781 C 377.8125 44.5625 377.261719 44.480469 376.707031 44.421875 C 376.148438 44.367188 375.59375 44.335938 375.035156 44.335938 M 306.945312 81.242188 C 306.402344 81.242188 305.835938 81.160156 305.277344 81.101562 C 305.863281 81 306.4375 80.851562 306.996094 80.648438 C 307.554688 80.449219 308.089844 80.199219 308.605469 79.90625 C 309.121094 79.609375 309.609375 79.273438 310.066406 78.890625 C 310.519531 78.511719 310.941406 78.09375 311.324219 77.640625 C 311.707031 77.183594 312.046875 76.703125 312.34375 76.1875 C 312.644531 75.671875 312.894531 75.136719 313.097656 74.578125 C 313.300781 74.023438 313.457031 73.449219 313.558594 72.863281 C 313.664062 72.28125 313.714844 71.691406 313.714844 71.097656 C 313.714844 70.503906 313.664062 69.914062 313.558594 69.328125 C 313.457031 68.742188 313.300781 68.171875 313.097656 67.613281 C 312.894531 67.054688 312.644531 66.519531 312.34375 66.003906 C 312.046875 65.492188 311.707031 65.007812 311.324219 64.554688 C 310.941406 64.097656 310.519531 63.683594 310.066406 63.300781 C 309.609375 62.921875 309.121094 62.582031 308.605469 62.289062 C 308.089844 61.992188 307.554688 61.746094 306.996094 61.542969 C 306.4375 61.34375 305.863281 61.191406 305.277344 61.09375 C 305.835938 61.007812 306.402344 60.910156 306.945312 60.910156 C 312.59375 60.910156 317.105469 65.492188 317.105469 71.09375 C 317.105469 76.699219 312.605469 81.242188 306.9375 81.242188 M 306.9375 56.59375 C 298.925781 56.59375 292.484375 63.109375 292.484375 71.09375 C 292.484375 72.042969 292.574219 72.984375 292.761719 73.917969 C 292.945312 74.851562 293.21875 75.757812 293.582031 76.636719 C 293.945312 77.515625 294.390625 78.351562 294.917969 79.144531 C 295.445312 79.933594 296.046875 80.667969 296.71875 81.339844 C 297.390625 82.015625 298.121094 82.613281 298.914062 83.144531 C 299.703125 83.671875 300.539062 84.121094 301.417969 84.484375 C 302.296875 84.847656 303.203125 85.125 304.136719 85.308594 C 305.066406 85.496094 306.011719 85.585938 306.960938 85.585938 C 307.914062 85.585938 308.855469 85.496094 309.789062 85.308594 C 310.722656 85.125 311.628906 84.847656 312.507812 84.484375 C 313.386719 84.121094 314.21875 83.671875 315.011719 83.144531 C 315.800781 82.613281 316.53125 82.015625 317.203125 81.339844 C 317.878906 80.667969 318.476562 79.933594 319.003906 79.144531 C 319.53125 78.351562 319.980469 77.515625 320.339844 76.636719 C 320.703125 75.757812 320.980469 74.851562 321.164062 73.917969 C 321.347656 72.984375 321.4375 72.042969 321.4375 71.09375 C 321.4375 63.109375 314.988281 56.59375 306.9375 56.59375 M 248.125 107.292969 C 247.539062 107.292969 246.941406 107.210938 246.449219 107.125 C 250.230469 106.34375 253.105469 102.960938 253.105469 98.941406 C 253.109375 98.464844 253.070312 97.992188 252.988281 97.519531 C 252.90625 97.050781 252.789062 96.589844 252.628906 96.140625 C 252.46875 95.6875 252.273438 95.257812 252.039062 94.839844 C 251.804688 94.425781 251.535156 94.03125 251.234375 93.660156 C 250.933594 93.289062 250.601562 92.949219 250.242188 92.636719 C 249.882812 92.324219 249.496094 92.042969 249.089844 91.792969 C 248.679688 91.546875 248.253906 91.335938 247.808594 91.164062 C 247.363281 90.988281 246.90625 90.855469 246.441406 90.757812 C 247.046875 90.632812 247.660156 90.574219 248.277344 90.585938 C 248.898438 90.597656 249.507812 90.675781 250.109375 90.824219 C 250.710938 90.972656 251.289062 91.183594 251.84375 91.460938 C 252.398438 91.738281 252.914062 92.070312 253.394531 92.464844 C 253.875 92.855469 254.304688 93.296875 254.683594 93.785156 C 255.066406 94.273438 255.386719 94.796875 255.652344 95.359375 C 255.914062 95.917969 256.113281 96.5 256.246094 97.105469 C 256.378906 97.710938 256.445312 98.324219 256.441406 98.941406 C 256.441406 99.488281 256.390625 100.03125 256.285156 100.570312 C 256.179688 101.105469 256.019531 101.625 255.8125 102.132812 C 255.605469 102.636719 255.347656 103.121094 255.046875 103.574219 C 254.742188 104.03125 254.398438 104.453125 254.011719 104.839844 C 253.625 105.226562 253.207031 105.574219 252.75 105.878906 C 252.296875 106.183594 251.816406 106.441406 251.3125 106.652344 C 250.804688 106.863281 250.285156 107.019531 249.75 107.128906 C 249.210938 107.238281 248.671875 107.292969 248.125 107.292969 M 248.125 86.976562 C 247.355469 87.003906 246.601562 87.105469 245.851562 87.28125 C 245.105469 87.453125 244.382812 87.699219 243.683594 88.011719 C 242.980469 88.324219 242.320312 88.699219 241.691406 89.140625 C 241.0625 89.582031 240.484375 90.078125 239.949219 90.632812 C 239.417969 91.183594 238.945312 91.78125 238.527344 92.425781 C 238.109375 93.070312 237.757812 93.746094 237.472656 94.457031 C 237.183594 95.167969 236.96875 95.902344 236.820312 96.652344 C 236.675781 97.40625 236.601562 98.167969 236.601562 98.933594 C 236.601562 99.699219 236.675781 100.460938 236.820312 101.214844 C 236.96875 101.964844 237.183594 102.699219 237.472656 103.410156 C 237.757812 104.121094 238.109375 104.800781 238.527344 105.441406 C 238.945312 106.085938 239.417969 106.683594 239.949219 107.238281 C 240.484375 107.789062 241.0625 108.285156 241.691406 108.726562 C 242.320312 109.167969 242.980469 109.542969 243.683594 109.855469 C 244.382812 110.171875 245.105469 110.414062 245.851562 110.589844 C 246.601562 110.761719 247.355469 110.863281 248.125 110.890625 C 248.890625 110.863281 249.648438 110.761719 250.394531 110.589844 C 251.140625 110.414062 251.863281 110.171875 252.5625 109.855469 C 253.265625 109.542969 253.929688 109.167969 254.554688 108.726562 C 255.183594 108.285156 255.761719 107.789062 256.296875 107.238281 C 256.828125 106.683594 257.300781 106.085938 257.71875 105.441406 C 258.136719 104.800781 258.488281 104.121094 258.777344 103.410156 C 259.0625 102.699219 259.277344 101.964844 259.425781 101.214844 C 259.570312 100.460938 259.644531 99.699219 259.644531 98.933594 C 259.644531 98.167969 259.570312 97.40625 259.425781 96.652344 C 259.277344 95.902344 259.0625 95.167969 258.777344 94.457031 C 258.488281 93.746094 258.136719 93.070312 257.71875 92.425781 C 257.300781 91.78125 256.828125 91.183594 256.296875 90.632812 C 255.761719 90.078125 255.183594 89.582031 254.554688 89.140625 C 253.929688 88.699219 253.265625 88.324219 252.5625 88.011719 C 251.863281 87.699219 251.140625 87.453125 250.394531 87.28125 C 249.648438 87.105469 248.890625 87.003906 248.125 86.976562 M 297.710938 198.832031 C 297.132812 198.824219 296.5625 198.890625 296.003906 199.035156 C 296.535156 198.910156 297.078125 198.84375 297.628906 198.84375 C 298.175781 198.839844 298.71875 198.898438 299.253906 199.019531 C 299.789062 199.136719 300.304688 199.316406 300.800781 199.550781 C 301.296875 199.789062 301.757812 200.078125 302.1875 200.417969 C 302.617188 200.757812 303.003906 201.144531 303.347656 201.574219 C 303.691406 202 303.980469 202.460938 304.21875 202.957031 C 304.460938 203.449219 304.640625 203.964844 304.761719 204.5 C 304.886719 205.035156 304.945312 205.578125 304.945312 206.125 C 304.945312 206.675781 304.886719 207.214844 304.761719 207.75 C 304.640625 208.285156 304.460938 208.800781 304.21875 209.292969 C 303.980469 209.789062 303.691406 210.25 303.347656 210.679688 C 303.003906 211.105469 302.617188 211.492188 302.1875 211.832031 C 301.757812 212.171875 301.296875 212.460938 300.800781 212.699219 C 300.304688 212.933594 299.789062 213.113281 299.253906 213.234375 C 298.71875 213.351562 298.175781 213.410156 297.628906 213.410156 C 297.078125 213.40625 296.535156 213.34375 296.003906 213.21875 C 296.539062 213.34375 297.082031 213.410156 297.632812 213.414062 C 298.183594 213.417969 298.726562 213.359375 299.261719 213.242188 C 299.800781 213.121094 300.316406 212.945312 300.816406 212.710938 C 301.3125 212.472656 301.777344 212.183594 302.210938 211.84375 C 302.640625 211.503906 303.03125 211.117188 303.375 210.6875 C 303.71875 210.261719 304.011719 209.796875 304.253906 209.300781 C 304.492188 208.808594 304.675781 208.292969 304.800781 207.753906 C 304.921875 207.21875 304.984375 206.675781 304.988281 206.125 C 304.984375 205.648438 304.9375 205.175781 304.84375 204.703125 C 304.753906 204.234375 304.613281 203.78125 304.429688 203.339844 C 304.25 202.898438 304.023438 202.476562 303.757812 202.078125 C 303.492188 201.683594 303.191406 201.3125 302.855469 200.976562 C 302.515625 200.636719 302.148438 200.332031 301.753906 200.066406 C 301.355469 199.800781 300.9375 199.574219 300.496094 199.390625 C 300.054688 199.207031 299.601562 199.066406 299.132812 198.972656 C 298.664062 198.875 298.1875 198.828125 297.710938 198.824219 M 374.960938 198.832031 C 374.378906 198.824219 373.8125 198.890625 373.25 199.035156 C 374.054688 199.21875 374.804688 199.527344 375.5 199.96875 C 376.199219 200.40625 376.804688 200.945312 377.316406 201.589844 C 377.832031 202.234375 378.222656 202.945312 378.496094 203.722656 C 378.765625 204.5 378.902344 205.300781 378.902344 206.125 C 378.902344 206.949219 378.765625 207.75 378.496094 208.527344 C 378.222656 209.304688 377.832031 210.015625 377.316406 210.660156 C 376.804688 211.304688 376.199219 211.84375 375.5 212.285156 C 374.804688 212.722656 374.054688 213.035156 373.25 213.21875 C 373.75 213.332031 374.257812 213.398438 374.769531 213.40625 C 375.28125 213.417969 375.789062 213.375 376.292969 213.277344 C 376.796875 213.179688 377.285156 213.03125 377.757812 212.828125 C 378.230469 212.628906 378.675781 212.382812 379.097656 212.085938 C 379.515625 211.792969 379.902344 211.457031 380.25 211.082031 C 380.601562 210.707031 380.90625 210.296875 381.171875 209.859375 C 381.433594 209.417969 381.648438 208.953125 381.8125 208.46875 C 381.980469 207.984375 382.09375 207.484375 382.152344 206.976562 C 382.210938 206.46875 382.21875 205.957031 382.171875 205.445312 C 382.125 204.933594 382.023438 204.433594 381.871094 203.945312 C 381.71875 203.457031 381.515625 202.988281 381.265625 202.539062 C 381.015625 202.09375 380.71875 201.675781 380.378906 201.292969 C 380.039062 200.90625 379.664062 200.5625 379.25 200.257812 C 378.839844 199.953125 378.398438 199.691406 377.933594 199.480469 C 377.464844 199.269531 376.980469 199.105469 376.480469 198.996094 C 375.980469 198.886719 375.472656 198.828125 374.960938 198.824219 M 452.191406 198.832031 C 451.617188 198.828125 451.054688 198.894531 450.5 199.035156 C 451.300781 199.21875 452.050781 199.53125 452.746094 199.96875 C 453.445312 200.410156 454.050781 200.949219 454.5625 201.59375 C 455.078125 202.238281 455.472656 202.949219 455.742188 203.726562 C 456.015625 204.5 456.15625 205.300781 456.15625 206.125 C 456.15625 206.949219 456.015625 207.75 455.742188 208.523438 C 455.46875 209.300781 455.074219 210.011719 454.5625 210.65625 C 454.046875 211.300781 453.441406 211.839844 452.746094 212.28125 C 452.050781 212.71875 451.300781 213.03125 450.5 213.21875 C 451.035156 213.34375 451.578125 213.410156 452.128906 213.414062 C 452.679688 213.421875 453.226562 213.363281 453.761719 213.246094 C 454.300781 213.125 454.820312 212.949219 455.316406 212.710938 C 455.816406 212.476562 456.28125 212.1875 456.714844 211.847656 C 457.148438 211.507812 457.535156 211.121094 457.882812 210.691406 C 458.226562 210.261719 458.519531 209.800781 458.761719 209.304688 C 459.003906 208.808594 459.1875 208.292969 459.3125 207.757812 C 459.433594 207.21875 459.5 206.675781 459.5 206.125 C 459.5 205.644531 459.449219 205.171875 459.355469 204.703125 C 459.261719 204.230469 459.121094 203.773438 458.9375 203.332031 C 458.753906 202.890625 458.527344 202.46875 458.261719 202.070312 C 457.996094 201.671875 457.691406 201.304688 457.351562 200.964844 C 457.015625 200.625 456.644531 200.324219 456.246094 200.058594 C 455.847656 199.792969 455.425781 199.566406 454.984375 199.382812 C 454.542969 199.199219 454.085938 199.0625 453.613281 198.96875 C 453.144531 198.875 452.671875 198.824219 452.191406 198.824219 " fill-opacity="1" fill-rule="nonzero"/><path fill="#8e1537" d="M 271.398438 160.324219 C 267.957031 161.09375 265.417969 164.191406 264.957031 168.183594 C 264.898438 168.691406 262.015625 167.726562 262.207031 166.882812 C 263.300781 162.476562 266.957031 159.46875 271.398438 160.324219 Z M 271.574219 143.707031 C 275.632812 143.707031 279.074219 146.058594 280.816406 148.191406 C 284.851562 152.859375 282.816406 154.890625 282.257812 153.824219 C 279.132812 148.824219 275.757812 144.757812 271.625 144.492188 C 270.507812 144.46875 270.875 143.707031 271.574219 143.707031 Z M 327.523438 144.46875 C 325.828125 143.957031 326.4375 143.417969 327.90625 143.582031 C 339.964844 145.207031 342.699219 163.917969 330.15625 168.5 C 327.972656 169.292969 328.1875 169.109375 329.855469 167.808594 C 338.214844 161.183594 336.789062 147.199219 327.523438 144.476562 Z M 425.9375 160.324219 C 422.539062 161.09375 419.996094 164.191406 419.496094 168.183594 C 419.414062 168.691406 416.539062 167.726562 416.761719 166.882812 C 417.878906 162.476562 421.511719 159.46875 425.929688 160.324219 Z M 426.121094 143.707031 C 430.222656 143.707031 433.605469 146.058594 435.390625 148.191406 C 439.390625 152.859375 437.347656 154.890625 436.8125 153.824219 C 433.671875 148.824219 430.3125 144.757812 426.203125 144.492188 C 425.054688 144.46875 425.421875 143.707031 426.121094 143.707031 Z M 482.035156 144.46875 C 480.367188 143.957031 480.984375 143.417969 482.453125 143.582031 C 494.492188 145.207031 497.269531 163.917969 484.667969 168.5 C 482.550781 169.292969 482.710938 169.109375 484.417969 167.808594 C 492.761719 161.183594 491.386719 147.199219 482.035156 144.476562 Z M 485.425781 185.824219 C 475.699219 185.824219 468.132812 182.425781 463.40625 177.125 L 467 177.125 C 469.96875 177.125 472.449219 175.027344 472.449219 172.457031 C 472.449219 169.867188 469.96875 167.75 467 167.75 L 463.140625 167.75 C 471.859375 154.71875 481.867188 160.667969 481.867188 169.574219 C 481.867188 170.035156 481.867188 170.527344 481.785156 170.957031 C 482.757812 170.9375 483.714844 170.820312 484.664062 170.609375 C 485.613281 170.402344 486.53125 170.101562 487.421875 169.714844 C 488.316406 169.328125 489.160156 168.859375 489.960938 168.308594 C 490.761719 167.757812 491.5 167.136719 492.179688 166.441406 C 492.859375 165.746094 493.464844 164.992188 494 164.179688 C 494.53125 163.371094 494.980469 162.515625 495.351562 161.613281 C 495.71875 160.714844 495.996094 159.789062 496.183594 158.835938 C 496.371094 157.882812 496.46875 156.921875 496.46875 155.949219 C 496.46875 143.46875 474.835938 131.292969 460.917969 154.816406 C 462.433594 150.628906 463.175781 146.3125 463.148438 141.859375 C 463.148438 127.300781 452.222656 115.476562 452.222656 115.476562 C 452.222656 115.476562 441.238281 127.308594 441.238281 141.859375 C 441.238281 146.441406 442 150.433594 443.125 153.824219 C 429.207031 131.617188 408.144531 143.632812 408.144531 155.949219 C 408.144531 164.132812 414.761719 170.777344 422.914062 170.949219 C 422.816406 170.496094 422.761719 170.039062 422.746094 169.574219 C 422.746094 160.667969 432.847656 154.71875 441.546875 167.742188 L 437.1875 167.742188 C 434.164062 167.742188 431.6875 169.867188 431.6875 172.457031 C 431.6875 175.027344 434.164062 177.125 437.1875 177.125 L 439.324219 177.125 C 433.523438 182.425781 424.820312 185.824219 415.097656 185.824219 C 399.0625 185.824219 382.792969 176.71875 380.285156 162.46875 L 394.035156 166.777344 C 396.136719 167.441406 397.453125 166.25 397.453125 164.257812 L 397.453125 146.34375 C 397.453125 144.535156 396.175781 143.199219 394.035156 143.84375 L 381.5 147.785156 L 386.351562 130.367188 C 387.050781 128.167969 386.269531 126.617188 383.527344 126.617188 L 366.425781 126.617188 C 363.675781 126.617188 362.882812 128.167969 363.566406 130.367188 L 368.457031 147.785156 L 355.875 143.832031 C 353.78125 143.199219 352.507812 144.535156 352.507812 146.332031 L 352.507812 164.25 C 352.507812 166.25 353.839844 167.441406 355.875 166.777344 L 369.59375 162.476562 C 366.957031 176.71875 350.714844 185.824219 334.753906 185.824219 C 325.003906 185.824219 316.296875 182.425781 310.488281 177.125 L 312.460938 177.125 C 315.421875 177.125 317.878906 175.027344 317.878906 172.457031 C 317.878906 169.867188 315.421875 167.75 312.460938 167.75 L 308.613281 167.75 C 317.230469 154.71875 327.355469 160.667969 327.355469 169.574219 C 327.359375 170.039062 327.316406 170.5 327.230469 170.957031 C 328.203125 170.9375 329.164062 170.824219 330.113281 170.617188 C 331.0625 170.410156 331.984375 170.113281 332.878906 169.726562 C 333.769531 169.339844 334.617188 168.871094 335.417969 168.320312 C 336.222656 167.769531 336.960938 167.144531 337.644531 166.453125 C 338.324219 165.757812 338.929688 165.003906 339.464844 164.191406 C 340 163.378906 340.453125 162.523438 340.820312 161.621094 C 341.1875 160.722656 341.464844 159.792969 341.65625 158.839844 C 341.84375 157.886719 341.9375 156.921875 341.941406 155.949219 C 341.941406 143.46875 320.238281 131.292969 306.402344 154.816406 C 307.671875 151.234375 308.660156 146.917969 308.660156 141.859375 C 308.660156 127.300781 297.660156 115.476562 297.660156 115.476562 C 297.660156 115.476562 286.675781 127.308594 286.675781 141.859375 C 286.675781 146.441406 287.460938 150.433594 288.59375 153.824219 C 274.675781 131.617188 253.671875 143.632812 253.671875 155.949219 C 253.671875 156.921875 253.765625 157.886719 253.953125 158.839844 C 254.140625 159.792969 254.417969 160.71875 254.785156 161.617188 C 255.152344 162.519531 255.601562 163.375 256.136719 164.1875 C 256.667969 165 257.273438 165.753906 257.953125 166.445312 C 258.636719 167.140625 259.375 167.761719 260.175781 168.3125 C 260.976562 168.863281 261.824219 169.332031 262.714844 169.71875 C 263.605469 170.105469 264.527344 170.402344 265.476562 170.609375 C 266.425781 170.816406 267.386719 170.929688 268.359375 170.949219 C 268.265625 170.496094 268.21875 170.039062 268.214844 169.574219 C 268.214844 160.667969 278.285156 154.71875 286.96875 167.742188 L 282.601562 167.742188 C 279.625 167.742188 277.160156 169.867188 277.160156 172.457031 C 277.160156 175.027344 279.625 177.125 282.601562 177.125 L 284.933594 177.125 C 279.167969 182.425781 270.449219 185.824219 260.699219 185.824219 C 241.78125 185.824219 234.28125 167.542969 230.332031 153.617188 C 252.765625 118.867188 305.429688 95.117188 364.464844 92.566406 L 364.464844 120.316406 L 385.402344 120.316406 L 385.402344 92.566406 C 444.074219 95.183594 496.828125 118.851562 519.3125 153.292969 C 514.460938 167.25 504.488281 185.824219 485.425781 185.824219 Z M 451.824219 121.25 C 452.257812 120.5 452.089844 120.757812 452.539062 120 C 455.75 124.777344 459.824219 132.957031 459.824219 141.859375 C 459.824219 144.265625 459.824219 145.890625 459.265625 148.542969 C 458.675781 151.207031 456.574219 153.410156 454.597656 154.832031 C 456.140625 150.644531 456.894531 146.320312 456.867188 141.859375 C 456.867188 134.476562 454.582031 126.027344 451.824219 121.25 Z M 452.199219 216.566406 Z M 374.960938 216.566406 C 369.199219 216.566406 364.464844 211.902344 364.464844 206.140625 C 364.464844 205.457031 364.527344 204.773438 364.660156 204.101562 C 364.792969 203.425781 364.988281 202.773438 365.25 202.136719 C 365.511719 201.503906 365.832031 200.898438 366.210938 200.328125 C 366.589844 199.753906 367.023438 199.222656 367.507812 198.738281 C 367.992188 198.25 368.515625 197.816406 369.085938 197.429688 C 369.65625 197.046875 370.257812 196.722656 370.890625 196.460938 C 371.527344 196.195312 372.179688 195.996094 372.851562 195.859375 C 373.527344 195.722656 374.207031 195.652344 374.890625 195.652344 C 375.578125 195.648438 376.257812 195.714844 376.933594 195.84375 C 377.605469 195.976562 378.261719 196.171875 378.898438 196.433594 C 379.53125 196.695312 380.136719 197.015625 380.707031 197.394531 C 381.28125 197.773438 381.8125 198.207031 382.296875 198.691406 C 382.785156 199.175781 383.21875 199.699219 383.605469 200.269531 C 383.988281 200.839844 384.3125 201.441406 384.574219 202.074219 C 384.839844 202.710938 385.042969 203.363281 385.175781 204.035156 C 385.3125 204.707031 385.382812 205.390625 385.386719 206.074219 C 385.386719 206.761719 385.320312 207.441406 385.191406 208.117188 C 385.058594 208.789062 384.863281 209.445312 384.601562 210.082031 C 384.339844 210.714844 384.019531 211.320312 383.640625 211.890625 C 383.261719 212.464844 382.828125 212.992188 382.34375 213.480469 C 381.859375 213.96875 381.335938 214.402344 380.765625 214.785156 C 380.195312 215.167969 379.59375 215.492188 378.960938 215.757812 C 378.324219 216.023438 377.671875 216.222656 377 216.359375 C 376.324219 216.496094 375.644531 216.566406 374.960938 216.566406 Z M 297.246094 121.25 C 297.734375 120.5 297.550781 120.757812 298.027344 120 C 301.261719 124.777344 305.261719 132.960938 305.261719 141.859375 C 305.261719 144.265625 305.246094 145.890625 304.710938 148.542969 C 304.09375 151.207031 301.976562 153.410156 300.070312 154.832031 C 301.558594 150.636719 302.296875 146.3125 302.285156 141.859375 C 302.285156 134.476562 300.070312 126.027344 297.246094 121.25 Z M 297.703125 216.566406 C 291.902344 216.566406 287.191406 211.902344 287.191406 206.140625 C 287.191406 205.453125 287.253906 204.773438 287.386719 204.101562 C 287.519531 203.425781 287.714844 202.769531 287.972656 202.132812 C 288.234375 201.5 288.554688 200.894531 288.933594 200.320312 C 289.3125 199.75 289.746094 199.21875 290.230469 198.730469 C 290.710938 198.242188 291.238281 197.804688 291.808594 197.421875 C 292.378906 197.039062 292.980469 196.714844 293.613281 196.449219 C 294.25 196.183594 294.902344 195.980469 295.574219 195.84375 C 296.25 195.707031 296.929688 195.636719 297.617188 195.632812 C 298.304688 195.632812 298.984375 195.695312 299.660156 195.828125 C 300.332031 195.957031 300.988281 196.152344 301.625 196.414062 C 302.261719 196.671875 302.867188 196.992188 303.4375 197.371094 C 304.011719 197.753906 304.542969 198.183594 305.03125 198.667969 C 305.519531 199.152344 305.953125 199.675781 306.339844 200.246094 C 306.722656 200.816406 307.046875 201.417969 307.3125 202.050781 C 307.578125 202.6875 307.78125 203.339844 307.917969 204.011719 C 308.054688 204.6875 308.125 205.367188 308.128906 206.054688 C 308.132812 206.742188 308.066406 207.421875 307.9375 208.097656 C 307.804688 208.769531 307.609375 209.425781 307.351562 210.0625 C 307.089844 210.699219 306.769531 211.300781 306.390625 211.875 C 306.011719 212.449219 305.582031 212.980469 305.097656 213.46875 C 304.613281 213.957031 304.085938 214.390625 303.515625 214.777344 C 302.949219 215.160156 302.347656 215.484375 301.710938 215.75 C 301.078125 216.015625 300.425781 216.21875 299.75 216.355469 C 299.078125 216.492188 298.398438 216.5625 297.710938 216.566406 Z M 520.738281 138.042969 C 491.859375 103.667969 436.457031 82.066406 374.917969 82.066406 C 313.019531 82.066406 257.90625 103.632812 229.105469 138.042969 L 208.621094 138.042969 L 247.832031 233.484375 L 501.070312 233.484375 L 541.214844 138.042969 Z M 366.476562 0 L 383.460938 0 C 385.644531 0 386.386719 1.601562 385.808594 3.292969 L 380.875 17.625 L 390.992188 14.492188 C 392.777344 13.859375 393.84375 14.933594 393.84375 16.601562 L 393.84375 31.625 C 393.84375 33.109375 392.820312 34.34375 390.992188 33.699219 L 381.835938 30.867188 L 385.644531 41.84375 C 385.867188 42.539062 385.8125 43.210938 385.476562 43.859375 C 382.253906 41.890625 378.753906 40.902344 374.976562 40.890625 C 371.140625 40.890625 367.609375 41.984375 364.476562 43.859375 C 364.164062 43.203125 364.121094 42.53125 364.339844 41.84375 L 368.125 30.867188 L 358.925781 33.699219 C 357.140625 34.34375 356.117188 33.109375 356.117188 31.617188 L 356.117188 16.609375 C 356.117188 14.941406 357.183594 13.859375 358.925781 14.5 L 369.09375 17.632812 L 364.160156 3.300781 C 363.574219 1.609375 364.351562 0.0078125 366.476562 0.0078125 M 535.621094 463.957031 C 535.621094 604.515625 450.382812 623.992188 399.460938 635.609375 L 396.585938 636.308594 L 397.167969 454.023438 L 535.621094 454.023438 Z M 396.386719 254.226562 L 534.628906 254.226562 L 534.628906 409.367188 L 396.34375 409.367188 Z M 215.4375 409.367188 L 215.4375 254.226562 L 353.617188 254.226562 L 353.65625 409.367188 Z M 350.558594 635.609375 C 299.609375 623.992188 214.421875 604.515625 214.421875 463.957031 L 214.421875 454.023438 L 352.839844 454.023438 L 353.425781 636.308594 C 352.464844 636.082031 351.507812 635.832031 350.558594 635.609375 Z M 540.796875 244.726562 L 209.1875 244.726562 C 205.128906 244.726562 204.019531 246.140625 204.019531 249.375 L 204.019531 463.957031 C 204.019531 611.757812 297.710938 633.15625 347.949219 644.675781 C 358.207031 647.039062 367.035156 649.074219 372.734375 651.550781 C 372.734375 651.550781 374.683594 652.382812 375.007812 652.382812 C 375.382812 652.382812 377.308594 651.550781 377.308594 651.550781 C 382.992188 649.074219 391.808594 647.050781 402.0625 644.675781 C 452.339844 633.15625 545.988281 611.757812 545.988281 463.957031 L 545.988281 249.375 C 545.988281 246.140625 544.875 244.726562 540.796875 244.726562 Z M 540.796875 244.726562 " fill-opacity="1" fill-rule="nonzero"/><path fill="#8e1537" d="M 275.117188 317.742188 L 275.117188 320.660156 C 275.117188 355.867188 292.867188 380.242188 328.003906 393.035156 L 330.003906 387.617188 C 318.835938 383.5 309.644531 378.207031 302.328125 371.800781 L 308.96875 371.800781 L 308.96875 369.5 L 299.800781 369.5 C 297.941406 367.679688 296.199219 365.753906 294.578125 363.714844 L 304.410156 363.714844 L 304.410156 361.433594 L 292.84375 361.433594 C 291.539062 359.570312 290.34375 357.636719 289.261719 355.632812 L 302.160156 355.632812 L 302.160156 353.292969 L 288.011719 353.292969 C 287.109375 351.476562 286.300781 349.492188 285.519531 347.574219 L 298.976562 347.574219 L 298.976562 345.214844 L 284.691406 345.214844 C 284.050781 343.339844 283.609375 341.390625 283.125 339.457031 L 296.226562 339.457031 L 296.226562 337.132812 L 282.660156 337.132812 C 282.328125 335.257812 281.984375 333.308594 281.75 331.351562 L 294.894531 331.351562 L 294.894531 328.992188 L 281.484375 328.992188 C 281.296875 327.191406 281.171875 325.386719 281.109375 323.574219 L 286.835938 323.574219 C 299.609375 323.574219 308.613281 327.800781 313.585938 336.058594 C 321.335938 348.875 317.421875 367.558594 313.628906 374.785156 L 318.828125 377.492188 C 323.761719 367.976562 327.261719 347.308594 318.621094 333.074219 C 314.414062 326.09375 305.511719 317.742188 286.835938 317.742188 L 275.109375 317.742188 Z M 415.269531 306.191406 L 418.585938 308.292969 C 419.375 307.160156 419.78125 305.902344 419.804688 304.523438 C 419.804688 298.917969 411.902344 295.792969 411.902344 288.582031 C 411.902344 285.382812 413.402344 281.351562 417.289062 275.808594 C 417.738281 277.925781 418.402344 280.058594 419.203125 282.226562 C 420.539062 285.507812 421.472656 288.199219 421.472656 290.542969 C 421.472656 292.542969 420.738281 294.242188 418.980469 295.875 L 421.628906 298.808594 C 424.488281 296.265625 425.414062 293.410156 425.414062 290.507812 C 425.414062 284.148438 420.871094 277.617188 420.871094 273.148438 C 420.871094 272.101562 421.046875 271.148438 421.621094 270.316406 L 418.453125 267.96875 C 410.578125 277.117188 407.996094 283.675781 407.996094 288.675781 C 407.996094 297.34375 415.804688 301.242188 415.804688 304.425781 C 415.789062 305.0625 415.609375 305.652344 415.269531 306.191406 " fill-opacity="1" fill-rule="nonzero"/><path fill="#8e1537" d="M 273.410156 283.484375 C 280.367188 283.484375 286.777344 282.183594 292.042969 279.898438 C 290.375 282.898438 289.742188 283.917969 289.785156 283.949219 C 293.117188 293.535156 293.417969 305.25 284.84375 309.898438 L 286.925781 314.957031 C 297.96875 311.375 300.085938 294.234375 295.71875 285.324219 C 296.976562 283.148438 304.253906 269.160156 304.253906 269.160156 C 304.253906 269.160156 300.996094 267.558594 298.96875 266.765625 C 294.976562 273.976562 284.226562 277.707031 273.410156 277.617188 C 262.597656 277.699219 251.875 273.976562 247.875 266.765625 C 246.085938 267.523438 244.316406 268.324219 242.566406 269.167969 C 242.605469 269.265625 249.847656 283.148438 251.117188 285.332031 C 247.765625 291.5 247.765625 306.609375 256.390625 313.125 C 251.117188 318.714844 247.222656 326.089844 247.222656 335.515625 C 247.222656 348.183594 253.941406 359.015625 260.25 365.726562 C 266.25 372.140625 268.933594 371.792969 268.933594 380.574219 C 268.933594 385.324219 268.089844 394.742188 268.089844 394.742188 L 273.925781 394.742188 C 273.925781 394.742188 275.324219 381.351562 274.476562 376.875 C 283.441406 381.351562 290.335938 386.316406 290.335938 394.742188 L 296.167969 394.742188 C 296.167969 383.941406 289.867188 378.492188 279 372.675781 C 263.292969 364.351562 253.03125 349.359375 253.03125 335.484375 C 253.03125 323.535156 260.558594 316.09375 266.667969 311.523438 C 253.421875 308.976562 253.199219 295.050781 257.066406 283.949219 C 257.082031 283.917969 256.425781 282.898438 254.78125 279.898438 C 260.066406 282.183594 266.484375 283.484375 273.410156 283.484375 " fill-opacity="1" fill-rule="nonzero"/><path fill="#8e1537" d="M 282.609375 296.148438 C 282.347656 296.148438 282.09375 296.097656 281.847656 295.996094 C 281.605469 295.894531 281.390625 295.75 281.203125 295.5625 C 281.015625 295.378906 280.875 295.164062 280.773438 294.917969 C 280.671875 294.675781 280.617188 294.421875 280.617188 294.160156 C 280.617188 293.007812 281.519531 292.074219 282.609375 292.074219 C 283.777344 292.074219 284.691406 293.007812 284.691406 294.160156 C 284.691406 295.242188 283.777344 296.160156 282.609375 296.160156 M 264.199219 296.160156 C 263.933594 296.160156 263.679688 296.109375 263.433594 296.007812 C 263.1875 295.90625 262.972656 295.761719 262.785156 295.574219 C 262.597656 295.386719 262.453125 295.167969 262.351562 294.925781 C 262.25 294.679688 262.199219 294.421875 262.199219 294.160156 C 262.199219 293.007812 263.074219 292.074219 264.199219 292.074219 C 264.472656 292.078125 264.738281 292.132812 264.992188 292.238281 C 265.246094 292.34375 265.46875 292.496094 265.664062 292.691406 C 265.855469 292.886719 266.003906 293.109375 266.109375 293.363281 C 266.214844 293.621094 266.265625 293.882812 266.265625 294.160156 C 266.265625 295.242188 265.332031 296.160156 264.199219 296.160156 M 282.609375 288.933594 C 282.542969 288.933594 282.46875 288.957031 282.359375 288.957031 C 277.941406 289.042969 275.109375 291.875 273.410156 296.132812 C 271.734375 291.875 268.890625 289.050781 264.457031 288.957031 L 264.207031 288.933594 C 263.867188 288.933594 263.527344 288.96875 263.195312 289.035156 C 262.859375 289.101562 262.535156 289.199219 262.21875 289.328125 C 261.902344 289.460938 261.601562 289.621094 261.320312 289.808594 C 261.035156 290 260.773438 290.214844 260.53125 290.457031 C 260.289062 290.699219 260.074219 290.960938 259.882812 291.246094 C 259.695312 291.527344 259.535156 291.828125 259.402344 292.144531 C 259.273438 292.460938 259.175781 292.785156 259.109375 293.117188 C 259.039062 293.453125 259.007812 293.792969 259.007812 294.132812 C 259.007812 294.476562 259.039062 294.8125 259.109375 295.148438 C 259.175781 295.484375 259.273438 295.808594 259.402344 296.125 C 259.535156 296.4375 259.695312 296.738281 259.882812 297.023438 C 260.074219 297.304688 260.289062 297.570312 260.53125 297.808594 C 260.773438 298.050781 261.035156 298.265625 261.320312 298.457031 C 261.601562 298.648438 261.902344 298.808594 262.21875 298.9375 C 262.535156 299.070312 262.859375 299.167969 263.195312 299.234375 C 263.527344 299.300781 263.867188 299.332031 264.207031 299.332031 C 266.042969 299.332031 267.625 298.417969 268.523438 296.976562 C 271.71875 300.59375 271.410156 304.191406 271.410156 309.515625 L 275.449219 309.515625 C 275.449219 304.191406 275.140625 300.59375 278.335938 296.976562 C 278.789062 297.714844 279.398438 298.296875 280.160156 298.71875 C 280.921875 299.136719 281.738281 299.34375 282.609375 299.332031 C 285.492188 299.332031 287.835938 297 287.835938 294.167969 C 287.835938 293.824219 287.800781 293.484375 287.734375 293.148438 C 287.667969 292.808594 287.570312 292.484375 287.4375 292.167969 C 287.304688 291.847656 287.144531 291.546875 286.953125 291.261719 C 286.765625 290.976562 286.546875 290.710938 286.304688 290.46875 C 286.0625 290.226562 285.796875 290.007812 285.511719 289.820312 C 285.226562 289.628906 284.925781 289.464844 284.609375 289.335938 C 284.292969 289.203125 283.964844 289.101562 283.628906 289.035156 C 283.292969 288.96875 282.953125 288.933594 282.609375 288.933594 M 447.949219 329.785156 L 464.03125 329.785156 L 464.03125 327.441406 L 450.699219 327.441406 C 452.070312 326.414062 453.40625 325.335938 454.699219 324.207031 L 469.96875 324.207031 L 469.96875 321.882812 L 458.132812 321.882812 C 461.183594 320.023438 464.515625 318.765625 468.382812 318.765625 C 480.085938 318.765625 483.328125 329.183594 489.820312 332.808594 L 443.605469 332.808594 C 444.921875 332.199219 447.941406 329.785156 447.941406 329.785156 M 459.941406 308.015625 C 459.941406 306.390625 463.15625 304.542969 467.292969 304.542969 C 471.476562 304.542969 474.71875 306.390625 474.71875 308.015625 C 474.71875 309.609375 471.46875 311.46875 467.300781 311.46875 C 463.15625 311.46875 459.941406 309.609375 459.941406 308.015625 M 506.144531 291.601562 C 484.734375 291.601562 484.566406 321.601562 497.871094 321.601562 C 499.164062 321.628906 500.355469 321.285156 501.4375 320.574219 C 501.4375 320.574219 500.136719 318.765625 499.003906 317.082031 C 496.335938 316.808594 494.535156 313.148438 494.535156 309.515625 C 494.535156 292.898438 519.871094 292.484375 519.871094 314.433594 C 519.871094 330.765625 510.621094 339.601562 500.429688 344.742188 C 489.21875 350.351562 477.085938 350.617188 477.085938 359.273438 C 477.085938 364.839844 481.632812 366.742188 485.367188 369.117188 C 488.367188 371 489.011719 372.234375 489.117188 373.667969 C 489.203125 375.515625 487.710938 377.082031 485.019531 377.082031 L 470.667969 377.167969 C 465.5 377.183594 457.75 377.082031 453.847656 377.082031 C 449.28125 377.082031 448.191406 372.542969 452.40625 369.742188 C 456.023438 367.417969 461.726562 365.417969 461.726562 359.273438 C 461.726562 352.300781 456.039062 351.875 443.171875 349.523438 C 433.753906 347.84375 413.554688 350.082031 413.769531 317.183594 L 421.1875 317.183594 C 421.1875 317.550781 421.105469 317.933594 421.105469 318.308594 C 421.105469 328.160156 426.214844 335.832031 434.0625 335.832031 C 435.6875 335.832031 437.1875 335.582031 438.582031 335.160156 L 504.96875 335.160156 L 504.96875 332.808594 L 500.078125 332.808594 C 494.34375 332.808594 483.394531 315.082031 474.550781 313.75 C 476.875 312.5 478.691406 310.359375 478.691406 308.015625 C 478.691406 303.84375 473.667969 300.523438 467.292969 300.523438 C 460.984375 300.523438 456.007812 303.84375 456.007812 308.015625 C 456.007812 310.625 457.914062 312.867188 460.875 314.160156 C 455.289062 316.035156 450.882812 319.691406 446.855469 323.042969 C 442.390625 326.792969 438.523438 330.125 434.0625 329.992188 C 429.171875 329.890625 426.945312 323.699219 426.945312 316.625 C 426.945312 314.773438 426.90625 313.523438 427.214844 311.359375 L 407.878906 311.359375 L 407.878906 314.300781 C 407.878906 351.332031 424.804688 353.324219 442.621094 355.492188 C 442.621094 355.492188 455.617188 356.785156 455.617188 359.375 C 455.617188 363.375 443.914062 364.191406 443.914062 373.398438 C 443.914062 380.082031 448.125 382.941406 456.109375 382.941406 L 470.667969 382.957031 L 482.691406 382.941406 C 490.652344 382.941406 494.886719 380.082031 494.886719 373.398438 C 494.886719 364.191406 483.167969 363.382812 483.167969 359.375 C 483.167969 355.925781 492.402344 354.917969 502.070312 350.265625 C 513.421875 344.882812 525.722656 335.035156 525.722656 314.484375 C 525.722656 298.535156 515.636719 291.601562 506.136719 291.601562 M 325.828125 576.890625 L 300.820312 576.890625 L 300.820312 570.058594 C 300.820312 566.875 307.011719 565.859375 313.34375 565.859375 C 319.695312 565.859375 325.828125 566.875 325.828125 570.066406 Z M 302.519531 522.273438 L 303.285156 516.523438 L 325.847656 516.523438 L 328.378906 522.191406 Z M 313.835938 530.359375 L 301.4375 530.359375 L 302.195312 524.640625 L 317.960938 524.640625 C 316.078125 525.972656 314.710938 527.867188 313.835938 530.359375 Z M 312.578125 538.484375 L 300.710938 538.484375 L 301.128906 532.722656 L 313.195312 532.722656 C 312.796875 534.625 312.589844 536.542969 312.578125 538.484375 Z M 311.371094 546.566406 L 300.710938 546.566406 L 300.710938 540.808594 L 312.546875 540.808594 C 312.46875 542.789062 312.078125 544.707031 311.371094 546.558594 Z M 300.710938 553.566406 L 300.710938 548.882812 L 310.085938 548.882812 C 308.335938 551.472656 305.46875 553.265625 300.710938 553.574219 Z M 292.003906 514.28125 C 283.667969 514.28125 280.109375 507.53125 280.109375 493.199219 L 280.25 485.839844 L 303.761719 485.839844 L 303.902344 493.207031 C 303.902344 507.542969 300.371094 514.28125 292.003906 514.28125 Z M 296.835938 535.082031 L 287.167969 535.082031 C 287.167969 535.082031 285.519531 522.773438 284.703125 516.191406 C 286.652344 517.339844 289.285156 518.242188 292.003906 518.242188 C 294.734375 518.242188 297.34375 517.339844 299.359375 516.191406 C 298.503906 522.773438 296.835938 535.082031 296.835938 535.082031 Z M 271.433594 538.484375 C 271.425781 536.539062 271.210938 534.621094 270.792969 532.722656 L 282.875 532.722656 L 283.25 538.484375 Z M 283.25 546.566406 L 272.640625 546.566406 C 271.921875 544.714844 271.523438 542.792969 271.449219 540.808594 L 283.25 540.808594 Z M 283.25 553.566406 C 278.585938 553.265625 275.632812 551.484375 273.902344 548.882812 L 283.25 548.882812 L 283.25 553.574219 Z M 270.167969 530.359375 C 269.402344 528.003906 268.023438 526.097656 266.023438 524.640625 L 281.800781 524.640625 L 282.535156 530.359375 Z M 255.597656 522.191406 L 258.175781 516.523438 L 280.683594 516.523438 L 281.492188 522.273438 Z M 261.625 508.441406 L 278.367188 508.441406 C 278.800781 509.609375 279.394531 510.765625 280.066406 511.773438 L 280.402344 514.214844 L 259.132812 514.214844 L 261.625 508.433594 Z M 265.140625 500.339844 L 276.492188 500.339844 C 276.71875 502.273438 277.042969 504.257812 277.574219 506.132812 L 262.625 506.132812 Z M 268.660156 492.257812 L 276.140625 492.257812 C 276.140625 492.257812 276.140625 496.375 276.285156 498.007812 L 266.234375 498.007812 L 268.648438 492.257812 Z M 272.191406 484.148438 L 276.226562 484.148438 L 276.210938 489.90625 L 269.691406 489.90625 L 272.191406 484.15625 Z M 277.152344 472.582031 L 306.84375 472.582031 L 310.835938 481.832031 L 273.160156 481.832031 Z M 314.320312 489.917969 L 307.820312 489.917969 L 307.820312 484.148438 L 311.804688 484.148438 L 314.320312 489.90625 Z M 317.804688 498.015625 L 307.6875 498.015625 C 307.851562 496.375 307.851562 492.257812 307.851562 492.257812 L 315.355469 492.257812 L 317.804688 498.007812 Z M 321.363281 506.132812 L 306.445312 506.132812 C 306.953125 504.265625 307.277344 502.273438 307.496094 500.339844 L 318.878906 500.339844 L 321.378906 506.132812 Z M 324.878906 514.214844 L 303.636719 514.214844 L 303.929688 511.765625 C 304.621094 510.765625 305.203125 509.609375 305.613281 508.433594 L 322.386719 508.433594 Z M 335.046875 523.992188 L 310.304688 467.089844 L 273.675781 467.089844 L 248.957031 523.992188 C 243.78125 526.699219 240.621094 532.324219 240.621094 539.714844 L 240.621094 558.648438 L 246.164062 558.648438 L 246.164062 539.714844 C 246.164062 532.175781 250.066406 527.683594 256.53125 527.683594 C 263.023438 527.683594 265.957031 529.417969 265.957031 539.574219 C 265.957031 551.347656 272.484375 559.058594 283.25 559.058594 L 288.75 559.058594 L 288.75 539.082031 L 295.253906 539.082031 L 295.253906 559.066406 L 300.710938 559.066406 C 311.535156 559.066406 318.078125 551.359375 318.078125 539.582031 C 318.078125 529.417969 320.929688 527.691406 327.453125 527.691406 C 333.890625 527.691406 337.757812 532.089844 337.832031 539.457031 L 337.832031 576.898438 L 331.238281 576.898438 L 331.238281 570.117188 C 331.238281 562.257812 322.453125 560.25 313.34375 560.25 C 304.210938 560.25 295.386719 562.257812 295.386719 570.117188 L 295.386719 582.183594 L 343.363281 582.183594 L 343.363281 539.492188 C 343.296875 532.214844 340.15625 526.691406 335.054688 523.992188 Z M 283.109375 576.890625 L 258.109375 576.890625 L 258.109375 570.058594 C 258.109375 566.875 264.273438 565.859375 270.609375 565.859375 C 276.941406 565.859375 283.109375 566.875 283.109375 570.066406 Z M 270.609375 560.242188 C 261.523438 560.242188 252.683594 562.25 252.683594 570.109375 L 252.683594 582.175781 L 288.535156 582.175781 L 288.535156 570.109375 C 288.535156 562.25 279.726562 560.242188 270.617188 560.242188 Z M 270.609375 560.242188 " fill-opacity="1" fill-rule="nonzero"/><g clip-path="url(#6786da299b)"><path fill="#8e1537" d="M 697.769531 633.574219 C 682.078125 634.347656 645.066406 639.992188 605.371094 649.800781 C 579.425781 656.273438 552.566406 664.433594 529.964844 674.347656 L 530.003906 639.289062 C 530.003906 639.207031 530.054688 639.148438 530.054688 639.058594 C 530.054688 639.039062 530.003906 639.023438 530.003906 639 L 530.003906 638.941406 L 530.003906 638.957031 C 529.90625 631.558594 513.421875 625.265625 500.5625 622.324219 C 514.6875 611.75 547.855469 598.492188 583.953125 588.148438 C 622.996094 576.816406 665.984375 568.40625 693.144531 568.433594 L 697.769531 568.449219 Z M 523.261719 718.242188 C 507.429688 731.53125 398.851562 736.875 375.015625 736.875 C 351.164062 736.875 242.605469 731.53125 226.738281 718.242188 L 226.570312 653.324219 C 254.699219 667.824219 344.074219 670.398438 375.015625 670.398438 C 405.945312 670.398438 495.300781 667.832031 523.429688 653.324219 Z M 220.03125 638.957031 L 220.003906 638.941406 L 220.003906 639.039062 L 219.988281 639.058594 L 220.003906 639.125 C 220.003906 642.984375 220.054688 658.148438 220.085938 674.347656 C 197.4375 664.433594 170.609375 656.265625 144.664062 649.800781 C 104.96875 639.984375 67.957031 634.347656 52.289062 633.574219 L 52.289062 568.449219 L 56.875 568.433594 C 84.058594 568.40625 126.980469 576.824219 166.082031 588.148438 C 202.160156 598.5 235.332031 611.75 249.457031 622.316406 C 236.640625 625.265625 220.128906 631.558594 220.03125 638.957031 Z M 704.710938 561.984375 C 704.128906 558.566406 699.761719 555.234375 689.667969 552.183594 C 671.585938 546.703125 653.4375 541.457031 635.222656 536.441406 C 607.085938 528.765625 605.113281 519.273438 613.746094 504.566406 C 615.804688 501.023438 612.105469 499.339844 606.277344 505.042969 C 597.277344 513.839844 597.910156 532.074219 597.910156 550.207031 L 597.910156 576.984375 C 550.90625 589.398438 505.554688 606.882812 491.550781 620.714844 L 491.535156 655.324219 C 452.898438 662.273438 396.34375 663.691406 375.015625 663.691406 C 353.675781 663.691406 297.128906 662.273438 258.484375 655.324219 L 258.457031 620.714844 C 244.480469 606.898438 199.203125 589.433594 152.164062 577.023438 L 152.164062 550.207031 C 152.164062 532.074219 151.855469 512.808594 143.882812 505.042969 C 138.015625 499.359375 134.628906 500.851562 136.4375 504.566406 C 146.941406 526.589844 139.089844 529.875 114.96875 536.441406 C 97.527344 541.191406 80.132812 546.28125 60.40625 552.191406 C 50.421875 555.234375 46 558.558594 45.441406 561.957031 L 45.257812 561.984375 L 45.257812 640.523438 C 45.257812 640.523438 47.472656 640.5 48.796875 640.5 C 61.332031 640.5 100.777344 646.140625 142.972656 656.558594 C 169.691406 663.140625 197.535156 671.800781 220.085938 681.972656 C 220.128906 700.765625 220.15625 718.859375 220.15625 720.972656 C 237.378906 740.699219 359.742188 743.515625 375.015625 743.515625 C 390.234375 743.515625 512.671875 740.699219 529.863281 720.972656 L 529.929688 681.972656 C 552.480469 671.800781 580.328125 663.140625 607.0625 656.558594 C 649.230469 646.140625 688.675781 640.5 701.203125 640.5 C 702.5625 640.5 704.738281 640.523438 704.738281 640.523438 L 704.738281 563.597656 C 704.847656 563.085938 704.847656 562.570312 704.738281 562.058594 L 704.738281 561.972656 L 704.710938 561.972656 Z M 704.710938 561.984375 " fill-opacity="1" fill-rule="nonzero"/></g><path fill="#8e1537" d="M 279.476562 712.75 C 276.691406 712.40625 273.125 711.625 270.449219 710.265625 C 270.683594 708.980469 271.039062 707.730469 271.515625 706.515625 C 274.183594 707.882812 277.152344 708.664062 279.925781 708.972656 C 283.777344 709.449219 285.761719 708.082031 285.761719 705.140625 C 285.761719 698.675781 270.484375 697.640625 270.484375 688.824219 C 270.484375 683.289062 275.316406 680.90625 282.09375 681.691406 C 284.226562 681.914062 287.058594 682.507812 289.136719 683.164062 C 289.046875 684.484375 288.808594 685.769531 288.417969 687.03125 C 286.128906 686.246094 283.785156 685.703125 281.382812 685.40625 C 276.84375 684.882812 275.425781 686.433594 275.425781 689.007812 C 275.425781 694.765625 290.703125 696.039062 290.703125 705.316406 C 290.703125 710.664062 286.386719 713.539062 279.476562 712.757812 M 314.238281 689.082031 L 305.738281 688.347656 L 305.738281 714.898438 L 300.871094 714.480469 L 300.871094 687.898438 L 292.277344 687.148438 L 292.277344 683.265625 L 314.59375 685.214844 C 314.59375 686.5 314.453125 687.875 314.238281 689.089844 M 330.53125 717.183594 C 322.839844 716.707031 318.445312 713.683594 318.445312 703.816406 L 318.445312 685.515625 L 323.394531 685.808594 L 323.394531 704.933594 C 323.394531 710.617188 324.953125 712.800781 330.628906 713.148438 C 335.671875 713.457031 338.03125 711.425781 338.03125 705.855469 L 338.03125 686.75 L 342.597656 687.015625 L 342.597656 705.316406 C 342.597656 713.300781 339.457031 717.730469 330.53125 717.183594 M 362.367188 691.375 C 360.277344 691.300781 358.191406 691.328125 356.109375 691.457031 L 356.109375 714.324219 C 357.757812 714.5 360.515625 714.734375 362.273438 714.789062 C 368.757812 714.972656 372.191406 711.234375 372.191406 703.207031 C 372.191406 694.015625 367.316406 691.515625 362.359375 691.375 M 362.566406 718.699219 C 359.398438 718.574219 354.648438 718.273438 351.191406 717.699219 L 351.191406 687.773438 C 354.074219 687.5 359.484375 687.40625 362.5 687.5 C 370.851562 687.75 377.460938 692.300781 377.460938 702.890625 C 377.460938 713.640625 371.183594 718.925781 362.566406 718.699219 M 384.25 718.359375 L 384.25 687.914062 L 389.183594 687.765625 L 389.183594 718.207031 L 384.25 718.375 Z M 409.695312 693.300781 C 409.425781 692.605469 409.285156 691.886719 409.277344 691.140625 L 408.910156 691.15625 C 408.910156 692.023438 408.828125 692.65625 408.605469 693.359375 L 404.519531 704.914062 L 413.605469 704.441406 Z M 418.210938 717.050781 L 414.828125 707.972656 L 403.253906 708.597656 L 399.984375 718.058594 C 398.5 718.105469 397.015625 718.023438 395.542969 717.808594 C 398.964844 707.421875 402.6875 697.148438 406.710938 686.984375 L 411.914062 686.714844 C 415.789062 696.503906 419.464844 706.367188 422.9375 716.308594 C 421.386719 716.710938 419.8125 716.957031 418.210938 717.039062 Z M 438.324219 715.414062 L 438.324219 684.957031 L 443.238281 684.566406 L 443.238281 715 Z M 472.890625 712.257812 L 459.015625 692.414062 C 458.363281 691.40625 457.804688 690.34375 457.347656 689.234375 L 457.039062 689.359375 C 457.140625 690.5 457.265625 691.847656 457.265625 692.75 L 457.265625 713.757812 L 452.882812 714.257812 L 452.882812 684.089844 C 454.339844 683.675781 456.550781 683.289062 457.925781 683.140625 L 471.207031 702.164062 C 471.785156 702.984375 472.441406 704.265625 472.851562 705.289062 L 473.199219 705.191406 C 473.039062 704.039062 472.949219 702.886719 472.933594 701.722656 L 472.933594 681.597656 L 477.335938 681.082031 L 477.335938 711.414062 C 476.152344 711.722656 474.167969 712.140625 472.890625 712.25 M 505.046875 525.082031 C 504.285156 523.140625 501.8125 523.125 501.667969 525.449219 C 501.195312 533.074219 494.019531 541.648438 486.46875 549.648438 C 486.886719 543.898438 486.578125 537.292969 485.335938 529.542969 C 484.851562 526.574219 481.550781 525.757812 481.085938 529.882812 C 480.917969 537.375 472.46875 547.433594 465.832031 556.757812 C 471.832031 543.257812 478.058594 529.332031 467.265625 502.292969 C 465.515625 497.957031 462.992188 498.484375 463.332031 503.140625 C 463.832031 510.707031 460.542969 517.75 456.816406 525.933594 C 453.449219 533.183594 449.847656 540.847656 448.265625 550.199219 C 443.839844 540.417969 439.074219 530.214844 440.207031 523.351562 C 440.582031 519.242188 437.257812 519.183594 436.1875 522.015625 C 429.839844 539.132812 429.597656 551.347656 432.164062 560.648438 C 426.054688 553.265625 421.347656 542.917969 423.246094 529.316406 C 423.695312 525.074219 420.871094 525 419.371094 528.042969 C 418.722656 527.050781 417.9375 526.066406 417.320312 525.117188 L 416.144531 522.957031 C 415.230469 521.230469 414.480469 519.4375 413.894531 517.574219 L 422.453125 517.574219 L 422.453125 515.367188 L 413.328125 515.367188 C 412.894531 513.613281 412.644531 511.835938 412.585938 510.03125 L 421.964844 510.03125 L 421.964844 507.824219 L 412.605469 507.824219 C 412.703125 505.890625 413.039062 504.074219 413.46875 502.40625 L 422.789062 502.40625 L 422.789062 500.257812 L 414.113281 500.257812 C 414.460938 498.691406 415.796875 496.292969 416.605469 494.867188 L 425.398438 494.867188 L 425.398438 492.667969 L 418.011719 492.667969 C 421.320312 487.964844 425.671875 484.300781 429.472656 482.28125 C 429.054688 483.65625 428.773438 484.925781 428.839844 486.234375 C 429.121094 492.199219 433.449219 498.898438 438.1875 505.273438 C 441.890625 510.234375 444.523438 513.601562 446.289062 516.417969 C 447.257812 518 448.488281 519.917969 450.75 523.75 C 451.265625 524.558594 453.28125 519.832031 454.230469 517.632812 C 457.90625 508.851562 460.441406 499.132812 460.441406 491.382812 C 460.441406 481.550781 458.074219 471.964844 448.324219 470.917969 C 454.15625 468.742188 457.574219 468.984375 462.757812 472.074219 C 464.042969 472.808594 464.042969 471.183594 463.234375 469.839844 C 462.75 469.105469 462.128906 468.519531 461.367188 468.082031 C 463.917969 466.183594 467.167969 467.917969 470.910156 470.03125 C 473.351562 471.40625 475.960938 473.367188 479.066406 473.859375 C 471.527344 481.773438 467.515625 497.609375 475.816406 520.574219 C 476.992188 523.800781 479.902344 524.007812 481.578125 520.742188 C 482.007812 519.917969 482.660156 518.601562 483.183594 517.574219 L 495.726562 517.574219 L 495.726562 515.367188 L 484.335938 515.367188 C 485.453125 513.351562 487.644531 510.03125 487.644531 510.03125 L 500.769531 510.03125 L 500.769531 507.824219 L 489.378906 507.824219 C 490.277344 506.589844 493.445312 502.40625 493.445312 502.40625 L 505.476562 502.40625 L 505.476562 500.257812 L 495.109375 500.257812 C 496.402344 498.476562 497.601562 496.65625 498.644531 494.867188 L 507.988281 494.867188 L 507.988281 492.667969 L 499.820312 492.667969 C 501.136719 489.957031 502.703125 485.65625 501.652344 481.449219 C 510.789062 484.28125 514.953125 493.507812 514.953125 504.640625 C 514.953125 513.851562 512.261719 524.417969 507.621094 534.25 C 507.007812 531.125 506.144531 528.070312 505.035156 525.082031 M 476.542969 576.117188 C 480.710938 571.214844 484.09375 564.898438 485.667969 556.140625 C 493.359375 548.167969 500.703125 540.476562 503.601562 532.515625 C 503.953125 534.492188 503.976562 536.339844 504.09375 538.15625 C 505.34375 557.683594 488.636719 568.648438 476.542969 576.117188 M 457.90625 594.515625 C 458.15625 577.742188 462.78125 568.792969 468.910156 560.199219 C 474.058594 552.917969 479.726562 545.476562 482.359375 537.851562 C 483.308594 546.609375 482.75 553.640625 481.183594 559.292969 C 476.851562 574.523438 463.132812 580.347656 457.90625 594.515625 M 451.222656 556.824219 C 452.257812 544.984375 456.574219 535.773438 460.359375 527.566406 C 462.851562 522.199219 465.25 517.007812 466.398438 511.691406 C 468.5 518.53125 469.300781 524.332031 469.257812 529.476562 C 469.175781 539.65625 465.375 547.265625 461.773438 556.949219 C 459.726562 562.234375 458.28125 567.679688 457.441406 573.28125 C 455.707031 567.667969 453.632812 562.183594 451.222656 556.824219 M 434.488281 551.925781 C 434.015625 546.074219 434.832031 539.117188 437.472656 530.734375 C 438.582031 538.707031 442.082031 546.5 445.699219 554.625 C 450.339844 564.925781 454.25 572.40625 455.523438 584.273438 C 449.273438 580.925781 435.496094 565.222656 434.488281 551.925781 M 442.222656 584.042969 C 441.15625 583.65625 440.082031 583.347656 439.015625 582.941406 C 432.289062 574.214844 422.453125 573.472656 421.722656 569.609375 C 421.304688 567.65625 419.847656 566.632812 418.863281 567.90625 C 415.277344 559.617188 416.105469 550.117188 419.0625 538.992188 C 420.421875 554.90625 428.546875 564.324219 436.398438 570.492188 C 439.480469 575.765625 443.457031 579.933594 447.058594 583.714844 C 448.941406 585.800781 451.125 587.339844 453.03125 588.757812 C 453.117188 589.015625 453.199219 589.316406 453.339844 589.589844 C 450.117188 586.800781 446.023438 585.257812 442.222656 584.042969 M 432.78125 589.492188 C 427.722656 587.875 423.15625 586.390625 421.65625 581.273438 C 421.105469 579.589844 421.003906 577.464844 421.222656 574.859375 C 422.621094 575.820312 424.082031 576.675781 425.605469 577.425781 C 430.3125 579.917969 435.972656 582.898438 439.257812 592.050781 C 437.175781 590.996094 435.019531 590.144531 432.78125 589.492188 M 494.5625 475.65625 C 495.828125 478.191406 497.1875 480.125 497.1875 484.199219 C 497.1875 493.433594 481.910156 507.882812 478.925781 517.074219 C 475.492188 502.523438 472.09375 484.273438 488.410156 470.007812 C 489.144531 469.390625 488.695312 468.925781 487.925781 469.191406 C 478.867188 472.234375 474.152344 462.957031 464.175781 462.957031 C 461.675781 462.957031 461.007812 463.964844 458.589844 466 C 453.984375 465 446.332031 466.332031 443.25 469.457031 C 440.824219 471.957031 441.941406 473.691406 443.53125 473.691406 C 461.832031 473.691406 455.789062 504.941406 450.464844 514.492188 C 447.132812 506.382812 434.757812 496.558594 434.429688 486.15625 C 434.265625 480.882812 437.113281 477.167969 438.539062 475.523438 C 420.644531 475.523438 407.980469 494.917969 407.980469 508.949219 C 407.980469 516.390625 409.996094 524.90625 417.171875 533.847656 C 412.238281 547.839844 410.230469 559.089844 415.652344 570.457031 C 416.238281 571.707031 416.886719 572.742188 417.628906 573.808594 C 416.269531 588.507812 424.464844 590.898438 431.574219 593.199219 C 435.78125 594.558594 439.449219 595.765625 440.890625 598.917969 C 442.390625 602.183594 445.308594 601.5 444.808594 597.949219 C 444.359375 594.574219 443.457031 591.324219 442.097656 588.199219 C 447.273438 590.199219 451.765625 593.648438 454.433594 597.316406 C 457.933594 602.097656 460.566406 600.816406 460.566406 599.015625 C 460.566406 599 460.542969 598.957031 460.542969 598.917969 C 463.832031 586.824219 470.582031 585.382812 479.210938 579.484375 C 491.328125 571.257812 504.960938 564.148438 507.503906 544.917969 C 515.472656 532.351562 520.519531 517.464844 520.519531 504.992188 C 520.519531 487.984375 511.128906 475.65625 494.5625 475.65625 M 569.257812 640.25 L 567.535156 619.683594 C 567.46875 619.097656 567.46875 617.765625 567.46875 616.90625 L 567.160156 617.007812 C 567.074219 618.074219 566.824219 619.257812 566.632812 620 L 559.589844 643.25 L 555.398438 644.566406 L 548.367188 625.914062 C 548.117188 625.042969 547.945312 624.160156 547.847656 623.257812 L 547.539062 623.382812 C 547.539062 624.183594 547.507812 625.664062 547.457031 626.199219 L 545.421875 647.972656 C 544.257812 648.308594 542.589844 648.800781 541.582031 648.925781 C 542.332031 638.90625 543.308594 628.875 544.539062 618.617188 L 549.625 616.972656 L 556.839844 635.984375 C 557.097656 636.773438 557.390625 637.925781 557.542969 639.050781 L 557.824219 638.949219 C 557.910156 637.746094 558.132812 636.566406 558.5 635.414062 L 565.582031 611.78125 L 570.800781 610.117188 C 571.925781 619.566406 572.859375 629.035156 573.601562 638.523438 C 572.265625 639.175781 570.585938 639.789062 569.265625 640.242188 M 593.300781 607.472656 C 587.933594 608.832031 585.183594 612.265625 585.183594 620.972656 C 585.183594 629.148438 587.628906 631.839844 593.351562 630.390625 C 599.003906 628.957031 601.488281 625.242188 601.488281 616.867188 C 601.488281 608.257812 598.652344 606.097656 593.300781 607.472656 M 593.34375 634.125 C 585.09375 636.183594 580.269531 632.734375 580.269531 622.433594 C 580.269531 612.25 585.269531 605.765625 593.351562 603.734375 C 601.570312 601.640625 606.429688 605.191406 606.429688 615.617188 C 606.429688 626.050781 601.238281 632.132812 593.34375 634.125 M 623.070312 600.457031 C 621.582031 600.78125 620.109375 601.167969 618.65625 601.625 L 618.65625 612.25 L 622.539062 611.414062 C 626.65625 610.582031 629.054688 608.316406 629.054688 604.449219 C 629.054688 600.734375 626.820312 599.675781 623.070312 600.457031 M 631.28125 625.300781 L 628.65625 621.039062 C 626.863281 618.082031 624.945312 615.707031 623.320312 614.609375 L 618.65625 615.609375 L 618.65625 627.722656 L 614.046875 628.714844 L 614.046875 599.492188 C 617.6875 598.324219 620.546875 597.539062 623.296875 596.964844 C 628.980469 595.75 633.746094 596.984375 633.746094 603.257812 C 633.746094 607.324219 631.054688 610.78125 627.246094 612.53125 C 628.980469 613.515625 630.957031 615.449219 632.664062 618.082031 L 636.214844 623.742188 C 634.738281 624.40625 632.839844 624.972656 631.28125 625.300781 M 660.851562 619.617188 L 642.433594 622.90625 L 642.433594 593.425781 L 660.476562 590.175781 C 660.476562 591.324219 660.332031 592.78125 660.089844 594.007812 L 647.105469 596.324219 L 647.105469 604.816406 L 656.941406 603.082031 L 656.941406 606.789062 L 647.105469 608.539062 L 647.105469 618.324219 L 661.242188 615.789062 C 661.242188 616.984375 661.117188 618.347656 660.851562 619.625 M 675.542969 617.800781 C 672.816406 618.207031 669.410156 618.375 666.816406 617.78125 C 666.984375 616.457031 667.417969 614.957031 667.84375 613.832031 C 670.53125 614.429688 673.230469 614.515625 675.953125 614.082031 C 679.652344 613.5 681.570312 611.664062 681.570312 608.832031 C 681.570312 602.515625 666.859375 605.5 666.859375 596.964844 C 666.859375 591.617188 671.507812 588.039062 678 587.050781 C 680.085938 586.707031 682.820312 586.566406 684.835938 586.640625 C 684.746094 587.980469 684.503906 589.289062 684.109375 590.574219 C 681.851562 590.425781 679.597656 590.5 677.351562 590.800781 C 672.96875 591.472656 671.609375 593.382812 671.609375 595.859375 C 671.609375 601.449219 686.335938 598.734375 686.335938 607.699219 C 686.335938 612.867188 682.203125 616.765625 675.542969 617.800781 M 72.257812 593.316406 C 72.007812 592.613281 71.878906 591.894531 71.867188 591.148438 L 71.535156 591.117188 C 71.558594 591.824219 71.445312 592.507812 71.183594 593.167969 L 67.28125 603.632812 L 76.058594 604.789062 Z M 80.441406 617.867188 L 77.234375 608.464844 L 66.089844 606.984375 L 62.957031 615.5 C 61.511719 615.292969 60.09375 614.957031 58.707031 614.492188 C 61.792969 605.425781 65.476562 596.03125 69.398438 586.65625 L 74.441406 587.375 C 78.128906 597.527344 81.664062 607.734375 85.050781 617.992188 C 83.511719 618.089844 81.976562 618.046875 80.441406 617.867188 Z M 99.386719 607.550781 L 94.003906 606.550781 L 94.003906 616.714844 C 95.867188 617.273438 97.59375 617.664062 98.835938 617.925781 C 103.136719 618.734375 105.285156 617.175781 105.285156 613.574219 C 105.285156 610.382812 102.996094 608.265625 99.386719 607.550781 M 98.617188 594.425781 C 97.3125 594.15625 95.910156 594.007812 94.003906 593.773438 L 94.003906 603.359375 L 99.121094 604.316406 C 102.394531 604.933594 104.378906 603.414062 104.378906 600.207031 C 104.378906 597.125 102.394531 595.125 98.628906 594.425781 M 98.9375 621.339844 C 95.742188 620.703125 92.589844 619.902344 89.476562 618.941406 L 89.476562 589.941406 C 92.226562 590.15625 95.667969 590.523438 98.460938 591.074219 C 104.820312 592.273438 108.945312 595.222656 108.945312 600.699219 C 108.945312 603.949219 106.894531 605.882812 104.261719 606.457031 L 104.261719 606.722656 C 107.960938 608.40625 110.136719 611.089844 110.136719 614.78125 C 110.136719 621.03125 105.085938 622.515625 98.9375 621.347656 M 134.714844 628.539062 L 116.496094 624.457031 L 116.496094 594.984375 L 134.378906 598.984375 C 134.378906 600.109375 134.265625 601.5 133.964844 602.648438 L 121.136719 599.773438 L 121.136719 608.265625 L 130.886719 610.449219 L 130.886719 614.164062 L 121.136719 611.964844 L 121.136719 621.714844 L 135.140625 624.882812 C 135.140625 626.050781 135.003906 627.375 134.714844 628.550781 M 151.832031 633.289062 C 144.605469 631.390625 140.4375 627.65625 140.4375 618.117188 L 140.4375 600.390625 L 145.082031 601.582031 L 145.082031 620.117188 C 145.082031 625.617188 146.582031 628.007812 151.914062 629.40625 C 156.664062 630.632812 158.847656 629.074219 158.847656 623.683594 L 158.847656 605.167969 L 163.167969 606.300781 L 163.167969 624.023438 C 163.167969 631.734375 160.164062 635.457031 151.832031 633.300781 M 189.058594 643.914062 L 176.191406 619.15625 C 175.589844 617.945312 175.078125 616.695312 174.667969 615.40625 L 174.332031 615.375 C 174.484375 616.542969 174.558594 617.898438 174.558594 618.742188 L 174.558594 639.125 L 170.484375 637.824219 L 170.484375 608.625 C 171.832031 608.792969 173.867188 609.292969 175.175781 609.714844 L 187.519531 633.449219 C 188.058594 634.5 188.667969 636 189.042969 637.117188 L 189.367188 637.164062 C 189.214844 636.019531 189.128906 634.871094 189.117188 633.714844 L 189.117188 614.183594 L 193.21875 615.472656 L 193.21875 644.859375 C 191.808594 644.628906 190.421875 644.316406 189.050781 643.914062 M 216.9375 628.273438 L 209.246094 625.308594 L 209.246094 651.058594 L 204.84375 649.308594 L 204.84375 623.609375 L 197.019531 620.558594 L 197.019531 616.800781 L 217.328125 624.632812 C 217.328125 625.867188 217.1875 627.183594 216.945312 628.273438 " fill-opacity="1" fill-rule="nonzero"/><g clip-path="url(#725b6e7845)"><g clip-path="url(#c20b6c7a58)"><path fill="#ffffff" d="M 364.496094 195.640625 L 385.503906 195.640625 L 385.503906 216.644531 L 364.496094 216.644531 Z M 364.496094 195.640625 " fill-opacity="1" fill-rule="nonzero"/></g></g><g clip-path="url(#1891cceb40)"><g clip-path="url(#2fef404a0b)"><path fill="#ffffff" d="M 440.695312 195.640625 L 461.703125 195.640625 L 461.703125 216.644531 L 440.695312 216.644531 Z M 440.695312 195.640625 " fill-opacity="1" fill-rule="nonzero"/></g></g><g clip-path="url(#2d93e847ee)"><g clip-path="url(#684af5fae2)"><path fill="#ffffff" d="M 287.238281 195.640625 L 308.246094 195.640625 L 308.246094 216.644531 L 287.238281 216.644531 Z M 287.238281 195.640625 " fill-opacity="1" fill-rule="nonzero"/></g></g><g clip-path="url(#416ded27bb)"><g clip-path="url(#dd494b6c03)"><g clip-path="url(#36f44d697a)"><path fill="#8e1537" d="M 373.636719 199.097656 C 375.265625 199.859375 376.550781 201.179688 377.273438 202.839844 C 378.902344 206.574219 377.199219 210.929688 373.484375 212.550781 C 373.253906 212.648438 373.019531 212.738281 372.777344 212.816406 C 374.492188 213.433594 376.339844 213.375 378.019531 212.644531 C 381.617188 211.074219 383.265625 206.855469 381.691406 203.238281 C 380.332031 200.121094 376.914062 198.386719 373.636719 199.097656 Z M 373.636719 199.097656 " fill-opacity="1" fill-rule="nonzero"/></g></g></g><g clip-path="url(#616ae14f70)"><g clip-path="url(#85aa76cf85)"><g clip-path="url(#0037d46586)"><path fill="#8e1537" d="M 450.519531 199.097656 C 452.148438 199.859375 453.433594 201.179688 454.15625 202.839844 C 455.785156 206.574219 454.082031 210.929688 450.367188 212.550781 C 450.136719 212.648438 449.898438 212.738281 449.660156 212.816406 C 451.375 213.433594 453.222656 213.375 454.898438 212.644531 C 458.5 211.074219 460.148438 206.855469 458.574219 203.238281 C 457.214844 200.121094 453.796875 198.386719 450.519531 199.097656 Z M 450.519531 199.097656 " fill-opacity="1" fill-rule="nonzero"/></g></g></g><g clip-path="url(#c9a9b839bc)"><g clip-path="url(#98a5572832)"><g clip-path="url(#3e4c776363)"><path fill="#8e1537" d="M 297.097656 199.097656 C 298.730469 199.859375 300.011719 201.179688 300.738281 202.839844 C 302.363281 206.574219 300.664062 210.929688 296.945312 212.550781 C 296.71875 212.648438 296.480469 212.738281 296.242188 212.816406 C 297.957031 213.433594 299.804688 213.375 301.480469 212.644531 C 305.082031 211.074219 306.730469 206.855469 305.152344 203.238281 C 303.796875 200.121094 300.378906 198.386719 297.097656 199.097656 Z M 297.097656 199.097656 " fill-opacity="1" fill-rule="nonzero"/></g></g></g></svg>